
<svg fill="#eab704" version="1.1" id="Capa_1" xmlns="http://www.w3.org/2000/svg" xmlns:xlink="http://www.w3.org/1999/xlink" x="0px" y="0px"
	 viewBox="0 0 461.969 461.969" style="enable-background:new 0 0 461.969 461.969;" xml:space="preserve">
<g id="XMLID_92_">
	<path id="XMLID_1136_" d="M177.658,355.919c-27.304-67.449-12.843-146.419,40.441-199.703
		c17.584-17.586,46.053-17.593,63.641-0.002l87.333,87.333l22.089-205.791c0.952-8.871-6.011-16.601-14.914-16.601H15.001
		c-8.92,0-15.864,7.745-14.914,16.601l41.765,389.105c0.817,7.621,7.249,13.399,14.914,13.399h189.866
		C216.561,420.329,191.939,391.197,177.658,355.919z"/>
	<path id="XMLID_1160_" d="M239.314,177.428c-19.908,19.908-33.223,43.947-39.958,69.382h130.553l-69.382-69.382
		C254.649,171.55,245.146,171.595,239.314,177.428z"/>
	<path id="XMLID_1161_" d="M250.438,405.779c30.04,24.733,68.377,37.196,107.756,34.726V298.023L250.438,405.779z"/>
	<path id="XMLID_1162_" d="M229.225,384.566L336.981,276.81H194.498C192.078,315.401,203.999,353.927,229.225,384.566z"/>
	<path id="XMLID_1163_" d="M388.194,435.648c25.616-6.784,49.585-20.162,69.382-39.959c5.858-5.856,5.859-15.354,0-21.213
		l-69.382-69.382V435.648z"/>
</g>

</svg>
