
<svg fill="#eab704" version="1.1" id="Layer_1" xmlns="http://www.w3.org/2000/svg" xmlns:xlink="http://www.w3.org/1999/xlink" x="0px" y="0px"
	 viewBox="0 0 512 512" style="enable-background:new 0 0 512 512;" xml:space="preserve">
<g>
	<g>
		<path d="M498.453,25.177c-10.615-12.102-25.812-18.768-42.776-18.768H56.331c-16.977,0-32.174,6.666-42.789,18.768
			C2.951,37.254-1.667,53.134,0.538,69.916c0,0,0,0,0,0.012l18.354,139.493v9.14h1.203l29.837,226.777
			c4.375,33.222,35.233,60.253,68.784,60.253h274.575c34.124,0,64.336-26.47,68.772-60.253l49.394-375.41
			C513.675,53.159,509.056,37.266,498.453,25.177z M437.323,442.084c-2.791,21.254-22.546,38.548-44.032,38.548H118.716
			c-21.12,0-41.29-17.659-44.044-38.56L45.265,218.561h421.468L437.323,442.084z M486.717,66.662l-16.702,126.94H41.98
			L25.278,66.662v0.012c-1.255-9.555,1.243-18.451,7.032-25.044c5.801-6.618,14.332-10.262,24.021-10.262h399.346
			c9.677,0,18.195,3.644,24.008,10.274C485.474,48.247,487.972,57.131,486.717,66.662z"/>
	</g>
</g>
<g>
	<g>
		<path d="M330.881,231.041h-74.877c-6.898,0-12.48,5.582-12.48,12.48v74.877c0,6.898,5.582,12.48,12.48,12.48h74.877
			c6.898,0,12.48-5.582,12.48-12.48V243.52C343.36,236.623,337.779,231.041,330.881,231.041z M318.401,305.918h-49.918V256h49.918
			V305.918z"/>
	</g>
</g>
<g>
	<g>
		<path d="M233.445,362.515l-52.953-52.94c-4.875-4.875-12.772-4.875-17.647,0l-52.94,52.94c-4.875,4.875-4.875,12.772,0,17.647
			l52.94,52.953c2.34,2.34,5.509,3.656,8.824,3.656s6.483-1.316,8.823-3.656l52.953-52.953c2.34-2.34,3.656-5.508,3.656-8.823
			S235.785,364.855,233.445,362.515z M171.669,406.644l-35.294-35.306l35.294-35.294l35.306,35.294L171.669,406.644z"/>
	</g>
</g>
<g>
	<g>
		<path d="M420.639,387.474l-52.953-52.94c-4.875-4.875-12.772-4.875-17.647,0l-52.94,52.94c-4.875,4.875-4.875,12.772,0,17.647
			l52.94,52.953c2.34,2.34,5.509,3.656,8.824,3.656s6.483-1.316,8.823-3.656l52.953-52.953c2.34-2.34,3.656-5.508,3.656-8.823
			S422.978,389.814,420.639,387.474z M358.863,431.604l-35.294-35.306l35.294-35.294l35.306,35.294L358.863,431.604z"/>
	</g>
</g>
<g>
</g>
<g>
</g>
<g>
</g>
<g>
</g>
<g>
</g>
<g>
</g>
<g>
</g>
<g>
</g>
<g>
</g>
<g>
</g>
<g>
</g>
<g>
</g>
<g>
</g>
<g>
</g>
<g>
</g>
</svg>
