<?xml version="1.0" standalone="no"?>
<!DOCTYPE svg PUBLIC "-//W3C//DTD SVG 20010904//EN"
 "http://www.w3.org/TR/2001/REC-SVG-20010904/DTD/svg10.dtd">
<svg version="1.0" xmlns="http://www.w3.org/2000/svg"
 width="96.000000pt" height="96.000000pt" viewBox="0 0 96.000000 96.000000"
 preserveAspectRatio="xMidYMid meet">
<metadata>
Created by potrace 1.14, written by Peter Selinger 2001-2017
</metadata>
<g transform="translate(0.000000,96.000000) scale(0.100000,-0.100000)"
fill="#000000" stroke="none">
<path d="M653 872 c-13 -2 -23 -7 -23 -12 0 -14 43 -100 50 -100 8 0 12 108 3
112 -4 2 -18 2 -30 0z"/>
<path d="M232 839 c-13 -5 -29 -25 -38 -44 -11 -27 -20 -35 -40 -35 -35 0 -63
-35 -84 -104 -24 -75 -14 -131 28 -170 20 -17 20 -21 7 -46 -13 -25 -13 -30 3
-49 35 -43 268 -116 314 -99 9 4 19 24 23 45 7 37 8 37 17 13 14 -36 38 -129
44 -170 14 -100 15 -101 90 -93 85 9 256 76 267 105 2 7 -2 25 -9 40 -13 25
-12 29 10 51 40 40 47 87 26 164 -20 74 -43 103 -86 107 -21 2 -30 9 -32 24
-9 57 -91 77 -199 48 -29 -8 -53 -12 -53 -10 0 17 37 73 50 77 28 7 13 49 -26
75 -80 53 -256 93 -312 71z m-32 -147 c0 -23 -40 -143 -53 -160 -25 -32 -52
39 -35 92 25 80 30 86 59 86 21 0 29 -5 29 -18z m618 -194 c5 -7 17 -37 26
-66 14 -49 14 -57 0 -90 -14 -35 -16 -36 -29 -18 -15 20 -55 136 -55 160 0 12
11 19 41 25 4 0 11 -5 17 -11z"/>
<path d="M737 794 l-28 -56 38 23 c21 12 46 27 55 33 16 10 16 12 -4 33 -12
13 -24 23 -28 23 -3 0 -18 -25 -33 -56z"/>
<path d="M770 718 l-55 -10 54 -24 c30 -13 55 -23 57 -21 7 7 13 67 7 66 -5
-1 -33 -6 -63 -11z"/>
</g>
</svg>
